<?xml version="1.0" encoding="iso-8859-1"?>
<!-- Generator: Adobe Illustrator 19.0.0, SVG Export Plug-In . SVG Version: 6.00 Build 0)  -->
<svg version="1.1" id="Layer_1" xmlns="http://www.w3.org/2000/svg" xmlns:xlink="http://www.w3.org/1999/xlink" x="0px" y="0px"
	 viewBox="0 0 512 512" style="enable-background:new 0 0 512 512;" xml:space="preserve">
<g>
	<g>
		<path d="M494.659,417.092v-49.034h-35.73V188.003h35.73V99.209h-29.725L256,15.45L47.066,99.209H17.341v88.794h35.73v180.054
			h-35.73v49.034H0v79.459h512v-79.459H494.659z M256,48.229l127.17,50.981H128.83L256,48.229z M47.766,157.579v-27.944h416.468
			v27.944h-5.305h-79.708h-29.009h-79.708h-29.009h-79.708h-29.009H53.071H47.766z M428.504,188.003v180.054h-18.858V188.003
			H428.504z M379.221,188.003v180.054h-29.009V188.003H379.221z M319.788,188.003v180.054h-18.858V188.003H319.788z
			 M270.505,188.003v180.054h-29.009V188.003h0H270.505z M211.071,188.003v180.054h-18.858V188.003H211.071z M161.787,188.003
			v180.054h-29.009V188.003H161.787z M102.354,188.003v180.054H83.496V188.003H102.354z M47.766,398.483h5.305h79.708h29.009h79.708
			h29.009h79.708h29.009h79.708h5.305v18.609H47.766V398.483z M481.575,466.124H30.425v-18.609h451.15V466.124z"/>
	</g>
</g>
<g>
</g>
<g>
</g>
<g>
</g>
<g>
</g>
<g>
</g>
<g>
</g>
<g>
</g>
<g>
</g>
<g>
</g>
<g>
</g>
<g>
</g>
<g>
</g>
<g>
</g>
<g>
</g>
<g>
</g>
</svg>
