<?xml version="1.0" encoding="UTF-8" standalone="no"?>
<!-- Created with Inkscape (http://www.inkscape.org/) -->

<svg
   width="14.095783mm"
   height="14.09579mm"
   viewBox="0 0 14.095783 14.09579"
   version="1.1"
   id="svg1015"
   inkscape:version="1.1.2 (76b9e6a115, 2022-02-25)"
   sodipodi:docname="casino.svg"
   xmlns:inkscape="http://www.inkscape.org/namespaces/inkscape"
   xmlns:sodipodi="http://sodipodi.sourceforge.net/DTD/sodipodi-0.dtd"
   xmlns="http://www.w3.org/2000/svg"
   xmlns:svg="http://www.w3.org/2000/svg">
  <sodipodi:namedview
     id="namedview1017"
     pagecolor="#ffffff"
     bordercolor="#cccccc"
     borderopacity="1"
     inkscape:pageshadow="0"
     inkscape:pageopacity="1"
     inkscape:pagecheckerboard="0"
     inkscape:document-units="mm"
     showgrid="false"
     fit-margin-top="0"
     fit-margin-left="0"
     fit-margin-right="0"
     fit-margin-bottom="0"
     inkscape:zoom="8.5065501"
     inkscape:cx="28.389887"
     inkscape:cy="37.911961"
     inkscape:window-width="1920"
     inkscape:window-height="1016"
     inkscape:window-x="0"
     inkscape:window-y="27"
     inkscape:window-maximized="1"
     inkscape:current-layer="layer1" />
  <defs
     id="defs1012" />
  <g
     inkscape:label="Capa 1"
     inkscape:groupmode="layer"
     id="layer1"
     transform="translate(-90.333567,-112.01105)">
    <path
       id="circle111748-7"
       style="color:#000000;overflow:visible;fill:#1f2b5b;fill-opacity:1;stroke:none;stroke-width:0.529167;-inkscape-stroke:none;stop-color:#000000"
       d="m 97.3812,112.01105 a 7.0479215,7.0479215 0 0 0 -7.047633,7.04815 7.0479215,7.0479215 0 0 0 7.047633,7.04764 7.0479215,7.0479215 0 0 0 7.04815,-7.04764 7.0479215,7.0479215 0 0 0 -7.04815,-7.04815 z m -0.01757,2.58072 3.32745,1.33377 h 0.47335 v 1.41439 h -0.56896 v 2.86701 h 0.56896 v 0.78083 h 0.27595 v 1.26555 h -8.153503 v -1.26555 h 0.276468 v -0.78083 h 0.568957 v -2.86701 h -0.568957 v -1.41439 H 94.0367 Z m 0,0.52194 -2.025198,0.81235 h 4.050398 z m -3.316076,1.29656 v 0.44493 h 0.08475 1.269175 0.461986 1.269175 0.461986 1.269172 0.461989 1.269683 0.0842 v -0.44493 z m 0.568957,0.92966 v 2.86701 h 0.300757 v -2.86701 z m 0.784966,0 v 2.86701 h 0.461986 v -2.86701 z m 0.946711,0 v 2.86701 h 0.300241 v -2.86701 z m 0.78445,0 v 2.86701 h 0.461986 v -2.86701 z m 0.946711,0 v 2.86701 h 0.300241 v -2.86701 z m 0.784447,0 v 2.86701 h 0.461989 v -2.86701 z m 0.946713,0 v 2.86701 h 0.300241 v -2.86701 z m -5.762955,3.35173 v 0.29611 h 6.632156 v -0.29611 h -0.0842 -1.269685 -0.461989 -1.269172 -0.461986 -1.269175 -0.461986 -1.269175 z m -0.275953,0.78083 v 0.29611 h 7.184059 v -0.29611 z" />
  </g>
</svg>
