<?xml version="1.0" encoding="UTF-8"?>
<!-- Generator: Adobe Illustrator 19.0.0, SVG Export Plug-In . SVG Version: 6.00 Build 0)  -->
<svg enable-background="new 0 0 458.5 458.5" version="1.1" viewBox="0 0 458.5 458.5" xml:space="preserve" xmlns="http://www.w3.org/2000/svg">


	
		
			
			
			
			
		
	
















<path d="m166.62 135.72c-6.0707 0-12.14 2.3175-16.771 6.9492-9.2604 9.265-9.2604 24.276 0 33.547l51.414 51.412-55.221 55.219c-9.2681 9.2681-9.2681 24.28 0 33.551 9.2588 9.2604 24.276 9.2604 33.539 0l55.225-55.225 52.82 52.82c9.2604 9.2604 24.273 9.2604 33.541 0 9.268-9.2666 9.2643-24.29 0.00391-33.549l-52.816-52.82 49.006-49.012c9.2681-9.2557 9.2681-24.276 0-33.547-9.2557-9.2635-24.28-9.2604-33.543 0l-49.01 49.014-51.412-51.41c-4.6325-4.6317-10.705-6.9492-16.775-6.9492z" color="#000000" fill="#fff" stop-color="#000000" style="-inkscape-stroke:none"/></svg>
