<?xml version="1.0" encoding="UTF-8"?>
<!-- Generator: Adobe Illustrator 19.0.0, SVG Export Plug-In . SVG Version: 6.00 Build 0)  -->
<svg enable-background="new 0 0 458.5 458.5" version="1.1" viewBox="0 0 458.5 458.5" xml:space="preserve" xmlns="http://www.w3.org/2000/svg">


	
		
			
			
			
			
		
	
















<path d="m47.246-2.9277c-11.598 0-21 9.402-21 21v336.01c0 11.598 9.402 21 21 21h63.002v63.004c0 11.598 9.402 21 21 21h280.01c11.598 0 21.002-9.402 21.002-21v-336.01c0-11.598-9.404-21.002-21.002-21.002h-63.002v-63.002c0-11.598-9.402-21-21-21h-280.01zm21 42.002h238.01v42h-175.01c-11.598 0-21 9.404-21 21.002v231.01h-42.002v-294.01zm84.004 84.002h238.01v294.01h-238.01v-294.01zm63.002 42.002c-11.598 0-21.002 9.402-21.002 21 0 11.598 9.404 21.002 21.002 21.002h112c11.598 0 21-9.404 21-21.002 0-11.598-9.402-21-21-21h-112zm0 84.002c-11.598 0-21.002 9.404-21.002 21.002 0 11.598 9.404 21 21.002 21h112c11.598 0 21-9.402 21-21 0-11.598-9.402-21.002-21-21.002h-112zm0 84.004c-11.598 0-21.002 9.402-21.002 21 0 11.598 9.404 21 21.002 21h112c11.598 0 21-9.402 21-21 0-11.598-9.402-21-21-21h-112z" fill="#fff"/></svg>
