<?xml version="1.0" encoding="UTF-8"?>
<!-- Generator: Adobe Illustrator 19.0.0, SVG Export Plug-In . SVG Version: 6.00 Build 0)  -->
<svg enable-background="new 0 0 458.5 458.5" version="1.1" viewBox="0 0 458.5 458.5" xml:space="preserve" xmlns="http://www.w3.org/2000/svg">


	
		
			
			
			
			
		
	
















<g transform="matrix(17.835 0 0 17.835 -14183 -3571.5)" stroke-width=".056068"><g transform="matrix(0 -.031246 .15345 0 800.95 214.55)" fill="#fff" stroke-width=".46764"><g fill="#fff" stroke-width=".46764"><g fill="#fff" stroke-width=".46764"><path d="m89.834 1.75h-86.834c-1.654 0-3 1.346-3 3v13.334c0 1.654 1.346 3 3 3h86.833c1.653 0 3-1.346 3-3v-13.334c1e-3 -1.654-1.345-3-2.999-3z"/><path d="m89.834 36.75h-86.834c-1.654 0-3 1.346-3 3v13.334c0 1.654 1.346 3 3 3h86.833c1.653 0 3-1.346 3-3v-13.334c1e-3 -1.654-1.345-3-2.999-3z"/><path d="m89.834 71.75h-86.834c-1.654 0-3 1.346-3 3v13.334c0 1.654 1.346 3 3 3h86.833c1.653 0 3-1.346 3-3v-13.334c1e-3 -1.655-1.345-3-2.999-3z"/></g></g></g></g></svg>
