<?xml version="1.0" encoding="UTF-8" standalone="no"?>
<!-- Created with Inkscape (http://www.inkscape.org/) -->

<svg
   width="14.095783mm"
   height="14.09579mm"
   viewBox="0 0 14.095783 14.09579"
   version="1.1"
   id="svg1015"
   inkscape:version="1.1.2 (76b9e6a115, 2022-02-25)"
   sodipodi:docname="online.svg"
   xmlns:inkscape="http://www.inkscape.org/namespaces/inkscape"
   xmlns:sodipodi="http://sodipodi.sourceforge.net/DTD/sodipodi-0.dtd"
   xmlns="http://www.w3.org/2000/svg"
   xmlns:svg="http://www.w3.org/2000/svg">
  <sodipodi:namedview
     id="namedview1017"
     pagecolor="#ffffff"
     bordercolor="#cccccc"
     borderopacity="1"
     inkscape:pageshadow="0"
     inkscape:pageopacity="1"
     inkscape:pagecheckerboard="0"
     inkscape:document-units="mm"
     showgrid="false"
     fit-margin-top="0"
     fit-margin-left="0"
     fit-margin-right="0"
     fit-margin-bottom="0"
     inkscape:zoom="8.5065501"
     inkscape:cx="28.389887"
     inkscape:cy="37.911961"
     inkscape:window-width="1920"
     inkscape:window-height="1016"
     inkscape:window-x="0"
     inkscape:window-y="27"
     inkscape:window-maximized="1"
     inkscape:current-layer="layer1"
     inkscape:snap-page="true"
     inkscape:snap-bbox="true"
     inkscape:bbox-nodes="true" />
  <defs
     id="defs1012" />
  <g
     inkscape:label="Capa 1"
     inkscape:groupmode="layer"
     id="layer1"
     transform="translate(-90.333567,-112.01105)">
    <path
       id="circle105918"
       style="color:#000000;overflow:visible;fill:#1f2b5b;fill-opacity:1;stroke:none;stroke-width:0.529167;-inkscape-stroke:none;stop-color:#000000"
       d="m 97.381199,112.01105 a 7.0479215,7.0479215 0 0 0 -7.047632,7.04814 7.0479215,7.0479215 0 0 0 7.047632,7.04815 7.0479215,7.0479215 0 0 0 7.048151,-7.04815 7.0479215,7.0479215 0 0 0 -7.048151,-7.04814 z m -3.508313,2.98069 h 7.188194 c 0.41075,0 0.74575,0.33496 0.74569,0.74569 v 4.60489 c 0,0.41074 -0.33494,0.74569 -0.74569,0.74569 h -1.986961 v 0.6072 h 0.274919 c 0.553963,0 1.006142,0.45218 1.006142,1.00614 v 0.0362 c 0,0.12624 -0.10475,0.22893 -0.23099,0.22893 h -5.315444 c -0.126235,0 -0.229443,-0.10267 -0.229443,-0.22893 v -0.0362 c 0,-0.55396 0.451142,-1.00614 1.005106,-1.00614 h 0.275953 v -0.6072 h -1.987476 c -0.410735,0 -0.745691,-0.33495 -0.745691,-0.74569 v -4.60489 c 0,-0.41072 0.334956,-0.74569 0.745691,-0.74569 z m 0,0.45992 c -0.158298,0 -0.286287,0.1275 -0.286287,0.28577 v 4.60489 c 0,0.15827 0.127986,0.28629 0.286287,0.28629 h 7.188194 c 0.15831,0 0.28629,-0.12802 0.28629,-0.28629 v -0.0599 -4.54495 c 0,-0.15826 -0.12801,-0.28577 -0.28629,-0.28577 z m 0.285254,0.39378 h 6.61872 c 0.12624,0 0.22896,0.10369 0.22893,0.22996 v 3.92896 c 0,0.12624 -0.10268,0.22996 -0.22893,0.22996 h -6.61872 c -0.126246,0 -0.230477,-0.1037 -0.230477,-0.22996 v -3.92896 c 0,-0.12625 0.104214,-0.22996 0.230477,-0.22996 z m 0.22996,0.45992 v 3.46852 h 6.15777 v -3.46852 z m 1.419552,0.2868 c 0.07911,0 0.122961,0.0668 0.164331,0.12816 h 0.0047 c 0.31867,0 0.578259,0.26012 0.578259,0.57877 v 0.0481 c 0,0.12626 -0.103191,0.22996 -0.229444,0.22996 -0.126239,0 -0.230993,-0.1037 -0.230993,-0.22996 v -0.0481 c 0,-0.0325 -0.0371,-0.0365 -0.05788,-0.0579 v 0.56637 c 0.295928,0.0979 0.518315,0.36368 0.518315,0.69143 v 0.0103 c 0,0.32774 -0.222353,0.59404 -0.518315,0.69194 v 0.0548 c 0,0.12625 -0.102662,0.23048 -0.228926,0.23048 -0.126252,0 -0.230994,-0.10423 -0.230994,-0.23048 v -0.0294 c -0.2857,-0.035 -0.516733,-0.25918 -0.516764,-0.55398 v -0.003 c 0,-0.12626 0.10268,-0.23047 0.228926,-0.23047 0.126238,0 0.22996,0.10422 0.22996,0.23047 v 0.003 c -1e-5,0.0327 0.03693,0.0375 0.05788,0.0589 v -0.56638 c -0.295931,-0.0979 -0.516764,-0.36367 -0.516764,-0.69143 v -0.0103 c 6e-6,-0.33454 0.222632,-0.61836 0.528133,-0.71056 0.02964,-0.093 0.117455,-0.16071 0.219625,-0.16071 z m 1.349271,0.10439 c 0.05893,0 0.117604,0.0221 0.162264,0.0667 l 0.386023,0.38447 c 0.08928,0.0893 0.08928,0.23575 0,0.32505 -0.04462,0.0447 -0.104527,0.0677 -0.163297,0.0677 -0.05875,0 -0.118698,-0.0231 -0.163298,-0.0677 l -0.383956,-0.38499 c -0.08928,-0.0893 -0.08928,-0.23523 0,-0.32453 0.04463,-0.0447 0.103344,-0.0667 0.162264,-0.0667 z m 1.137915,0.49712 c 0.0089,0 0.01797,7e-5 0.02687,0.002 l 1.522905,0.22428 c 0.0859,0.0126 0.157187,0.0726 0.184487,0.15503 0.0272,0.0824 0.006,0.17424 -0.05529,0.23564 l -0.245463,0.24443 0.576706,0.57671 c 0.0893,0.0893 0.0893,0.23574 0,0.32504 l -0.482655,0.4837 c -0.04461,0.0447 -0.102471,0.0672 -0.161231,0.0672 -0.05876,0 -0.119204,-0.0226 -0.163814,-0.0672 l -0.576709,-0.57671 -0.24443,0.24443 c -0.0613,0.0614 -0.153154,0.0826 -0.235644,0.0553 -0.08238,-0.0273 -0.14237,-0.0987 -0.15503,-0.18448 l -0.224275,-1.52188 c -0.01058,-0.0719 0.01427,-0.14445 0.06563,-0.19585 0.04495,-0.045 0.105288,-0.0692 0.167948,-0.0672 z m -2.71818,0.17105 c -0.01682,0.0362 -0.05788,0.0561 -0.05788,0.0987 v 0.0103 c -1e-5,0.0426 0.04103,0.0626 0.05788,0.0987 z m 1.453141,0.31316 h 0.489893 c 0.126244,0 0.230477,0.10424 0.230477,0.23048 0,0.12625 -0.104219,0.22893 -0.230477,0.22893 h -0.489893 c -0.126244,0 -0.230993,-0.10268 -0.230993,-0.22893 0,-0.12624 0.104729,-0.23048 0.230993,-0.23048 z m 1.53169,0.0191 0.112137,0.76326 0.08372,-0.0847 c 0.04462,-0.0446 0.104528,-0.0672 0.163298,-0.0672 0.05876,0 0.117137,0.0226 0.161747,0.0672 l 0.578776,0.57775 0.157613,-0.15762 -0.577742,-0.57774 c -0.08928,-0.0893 -0.08928,-0.23574 0,-0.32504 l 0.08475,-0.0842 z m -1.040764,0.58963 c 0.05892,0 0.117604,0.0221 0.162264,0.0667 0.08929,0.0893 0.08929,0.23575 0,0.32505 l -0.394808,0.39584 c -0.04462,0.0447 -0.105044,0.0667 -0.163814,0.0667 -0.05876,0 -0.11663,-0.0221 -0.16123,-0.0667 -0.08929,-0.0893 -0.08929,-0.23626 0,-0.32556 l 0.394808,-0.39533 c 0.04464,-0.0446 0.10386,-0.0667 0.16278,-0.0667 z m -1.484147,0.11369 v 0.20774 c 0.01703,-0.0363 0.05788,-0.0569 0.05788,-0.0997 v -0.009 c 1e-5,-0.0427 -0.04098,-0.0625 -0.05788,-0.0987 z m -0.413411,0.84543 -10e-4,0.004 0.0036,-0.003 c -9e-4,0 -0.0017,-9.9e-4 -0.0026,-0.001 z m 0.696598,1.84226 v 0.6072 h 2.294434 v -0.6072 z m -0.735356,1.06712 c -0.215228,0 -0.351383,0.17059 -0.440283,0.3514 h 4.646745 c -0.08887,-0.18088 -0.226526,-0.3514 -0.441833,-0.3514 z" />
  </g>
</svg>
