<?xml version="1.0" encoding="iso-8859-1"?>
<!-- Generator: Adobe Illustrator 19.0.0, SVG Export Plug-In . SVG Version: 6.00 Build 0)  -->
<svg version="1.1" id="Layer_1" xmlns="http://www.w3.org/2000/svg" xmlns:xlink="http://www.w3.org/1999/xlink" x="0px" y="0px"
	 viewBox="0 0 512 512" style="enable-background:new 0 0 512 512;" xml:space="preserve">
<g>
	<g>
		<g>
			<path d="M470.929,21.067H41.071C18.424,21.067,0,39.492,0,62.138v275.364c0,22.647,18.424,41.071,41.071,41.071h122.36v43.411
				h-20.004c-31.212,0-56.605,25.393-56.605,56.605v2.128c0,5.641,4.574,10.214,10.214,10.214h317.925
				c5.641,0,10.214-4.574,10.214-10.214v-2.128c0-31.212-25.393-56.605-56.605-56.605h-20.004v-43.411h122.36
				c22.647,0,41.071-18.424,41.071-41.071V62.138C512,39.492,493.576,21.067,470.929,21.067z M368.571,442.414
				c17.171,0,31.584,12.021,35.267,28.09H108.162c3.682-16.069,18.096-28.09,35.265-28.09H368.571z M183.86,421.985v-43.411H328.14
				v43.411H183.86z M491.572,337.503h-0.001c0,11.381-9.259,20.642-20.642,20.642H41.071c-11.383,0-20.642-9.261-20.642-20.642
				V62.138c0-11.381,9.259-20.642,20.642-20.642H470.93c11.381,0,20.642,9.261,20.642,20.642V337.503z"/>
			<path d="M453.905,72.14H58.095c-5.641,0-10.214,4.574-10.214,10.214v234.933c0,5.641,4.574,10.214,10.214,10.214h395.81
				c5.641,0,10.214-4.574,10.214-10.214V82.354C464.12,76.713,459.546,72.14,453.905,72.14z M443.691,307.072H68.309V92.569h375.382
				V307.072z"/>
			<path d="M146.514,268.766v3.833c0,5.641,4.573,10.214,10.214,10.214c5.641,0,10.214-4.574,10.214-10.214v-5.051
				c17.763-4.44,30.963-20.529,30.963-39.647v-0.618c0-19.12-13.2-35.208-30.963-39.647v-42.711
				c5.82,0.066,10.534,4.815,10.534,10.65v2.846c0,5.641,4.574,10.214,10.214,10.214s10.214-4.574,10.214-10.214v-2.846
				c0-17.14-13.944-31.085-31.085-31.085h-0.213c-1.135-4.402-5.121-7.661-9.88-7.661c-5.18,0-9.448,3.86-10.114,8.859
				c-17.814,4.404-31.063,20.516-31.063,39.67v0.618c0,19.12,13.2,35.208,30.963,39.647v42.711
				c-5.82-0.066-10.534-4.815-10.534-10.65v-0.211c0-5.641-4.574-10.214-10.214-10.214s-10.214,4.573-10.214,10.214v0.211
				C115.551,254.782,129.43,268.699,146.514,268.766z M166.943,209.417c6.274,3.493,10.534,10.188,10.534,17.865v0.618
				c0,7.677-4.259,14.372-10.534,17.865V209.417z M135.98,165.975v-0.618c0-7.677,4.259-14.372,10.534-17.865v36.348
				C140.24,180.347,135.98,173.652,135.98,165.975z"/>
			<path d="M308.437,255.496c0.562,3.82,3.23,6.997,6.896,8.211c3.666,1.214,7.703,0.257,10.433-2.474l17.151-17.153l37.017,37.017
				c1.994,1.994,4.608,2.992,7.223,2.992s5.229-0.997,7.223-2.992l28.89-28.89c3.99-3.99,3.99-10.456,0-14.446l-37.016-37.016
				l17.151-17.151c2.731-2.731,3.687-6.768,2.474-10.434c-1.214-3.664-4.39-6.333-8.211-6.895l-91.026-13.386
				c-3.197-0.467-6.426,0.599-8.709,2.883c-2.284,2.284-3.353,5.513-2.883,8.709L308.437,255.496z M374.589,183.519l-10.003,10.003
				c-3.99,3.99-3.99,10.456,0,14.446l37.016,37.016l-14.445,14.445l-37.017-37.017c-1.994-1.994-4.608-2.992-7.223-2.992
				c-2.615,0-5.229,0.997-7.223,2.992l-10.003,10.004l-8.431-57.326L374.589,183.519z"/>
			<path d="M253.246,163.415c1.994,1.994,4.608,2.992,7.223,2.992c2.615,0,5.229-0.997,7.223-2.992c3.99-3.99,3.99-10.456,0-14.446
				l-22.983-22.983c-3.989-3.987-10.456-3.987-14.445,0c-3.99,3.99-3.99,10.456,0,14.446L253.246,163.415z"/>
			<path d="M229.825,202.157h29.367c5.641,0,10.214-4.574,10.214-10.214s-4.574-10.214-10.214-10.214h-29.367
				c-5.641,0-10.214,4.574-10.214,10.214S224.185,202.157,229.825,202.157z"/>
			<path d="M251.969,221.109l-23.621,23.621c-3.99,3.99-3.99,10.456,0,14.446c1.994,1.994,4.608,2.992,7.223,2.992
				c2.615,0,5.229-0.997,7.223-2.992l23.621-23.621c3.99-3.99,3.99-10.456,0-14.446
				C262.426,217.121,255.958,217.121,251.969,221.109z"/>
		</g>
	</g>
</g>
<g>
</g>
<g>
</g>
<g>
</g>
<g>
</g>
<g>
</g>
<g>
</g>
<g>
</g>
<g>
</g>
<g>
</g>
<g>
</g>
<g>
</g>
<g>
</g>
<g>
</g>
<g>
</g>
<g>
</g>
</svg>
