<?xml version="1.0" encoding="UTF-8"?>
<!-- Generator: Adobe Illustrator 19.0.0, SVG Export Plug-In . SVG Version: 6.00 Build 0)  -->
<svg enable-background="new 0 0 458.5 458.5" version="1.1" viewBox="0 0 458.5 458.5" xml:space="preserve" xmlns="http://www.w3.org/2000/svg">


	
		
			
			
			
			
		
	
















<path id="🎨-Color" d="m309.24 246.54v61.517h61.5l-0.0155 61.491 61.532 0.0151v61.517h-61.517v-61.506l-61.5-0.0114v61.517h-61.517v-61.517l61.5 0.0114v-61.517h-61.5v-61.517zm-144.59 5e-3c25.481 0 46.138 20.656 46.138 46.138v92.265c0 25.481-20.657 46.138-46.138 46.138h-92.265c-25.481 0-46.138-20.656-46.138-46.138v-92.265c0-25.481 20.656-46.138 46.138-46.138zm0 36.91h-92.265c-5.0964 0-9.2275 4.1313-9.2275 9.2275v92.265c0 5.0962 4.1312 9.2275 9.2275 9.2275h92.265c5.0962 0 9.2275-4.1313 9.2275-9.2275v-92.265c0-5.0962-4.1313-9.2275-9.2275-9.2275zm-13.836 23.064v64.593h-64.593v-64.593zm281.45-59.979v61.517h-61.517v-61.517zm-267.61-221.46c25.481 0 46.138 20.656 46.138 46.138v92.265c0 25.481-20.657 46.138-46.138 46.138h-92.265c-25.481 0-46.138-20.656-46.138-46.138v-92.265c0-25.481 20.656-46.138 46.138-46.138zm221.46 0c25.481 0 46.138 20.656 46.138 46.138v92.265c0 25.481-20.656 46.138-46.138 46.138h-92.265c-25.481 0-46.138-20.656-46.138-46.138v-92.265c0-25.481 20.656-46.138 46.138-46.138zm-221.46 36.91h-92.265c-5.0964 0-9.2275 4.1313-9.2275 9.2275v92.265c0 5.0962 4.1312 9.2275 9.2275 9.2275h92.265c5.0962 0 9.2275-4.1313 9.2275-9.2275v-92.265c0-5.0962-4.1313-9.2275-9.2275-9.2275zm221.46 0h-92.265c-5.0964 0-9.2275 4.1313-9.2275 9.2275v92.265c0 5.0962 4.1311 9.2275 9.2275 9.2275h92.265c5.0962 0 9.2275-4.1313 9.2275-9.2275v-92.265c0-5.0962-4.1313-9.2275-9.2275-9.2275zm-13.836 23.064v64.593h-64.593v-64.593zm-221.51 0.04984v64.494h-64.494v-64.494z" fill="#fff"/></svg>
