<?xml version='1.0' encoding='iso-8859-1'?>
<!DOCTYPE svg PUBLIC '-//W3C//DTD SVG 1.1//EN' 'http://www.w3.org/Graphics/SVG/1.1/DTD/svg11.dtd'>
<svg version="1.1" xmlns="http://www.w3.org/2000/svg" viewBox="0 0 234 234" xmlns:xlink="http://www.w3.org/1999/xlink" enable-background="new 0 0 234 234">
  <g>
    <path d="m228,91.412h-52.225l-44.931-70.463c-2.877-4.512-7.543-7.67-12.802-8.664-5.254-0.992-10.754,0.243-15.08,3.393-11.074,8.065-15.473,22.667-10.697,35.507l16.12,43.341h-87.945c-11.27,0.001-20.44,9.17-20.44,20.441 0,5.632 2.29,10.74 5.988,14.44-3.698,3.702-5.988,8.809-5.988,14.441 0,6.771 3.323,12.765 8.409,16.487-2.638,3.443-4.224,7.731-4.224,12.393 0,7.658 4.239,14.336 10.487,17.837-2.058,3.189-3.267,6.975-3.267,11.044 0,11.271 9.17,20.44 20.44,20.44h196.155c3.313,0 6-2.687 6-6v-118.637c0-3.313-2.687-6-6-6zm-207.56,15.115h1.331 31.016c4.654,0 8.44,3.786 8.44,8.44s-3.786,8.44-8.44,8.44h-32.347c-4.654,0-8.44-3.786-8.44-8.44s3.786-8.44 8.44-8.44zm-8.44,37.321c0-4.654 3.786-8.44 8.44-8.44h32.347 4.31c4.654,0 8.44,3.786 8.44,8.44 0,4.654-3.786,8.44-8.44,8.44h-32.471-4.186c-4.654,0-8.44-3.786-8.44-8.44zm4.186,28.881c0-4.654 3.786-8.44 8.44-8.44h32.471 1.518c4.653,0 8.439,3.786 8.439,8.44s-3.786,8.44-8.439,8.44h-26.768-7.221c-4.654,0-8.44-3.786-8.44-8.44zm53.834,37.321h-38.173c-4.654,0-8.44-3.786-8.44-8.44 0-4.654 3.786-8.44 8.44-8.44h26.768 11.405c4.654,0 8.44,3.786 8.44,8.44 0,4.653-3.786,8.44-8.44,8.44zm18.594,0c1.175-2.577 1.846-5.428 1.846-8.44 0-8.943-5.782-16.544-13.797-19.31 1.521-2.858 2.391-6.113 2.391-9.571 0-6.035-2.645-11.451-6.817-15.196 3.282-3.628 5.301-8.419 5.301-13.685 0-6.806-3.357-12.83-8.489-16.547 2.61-3.433 4.179-7.698 4.179-12.334 0-3.012-0.671-5.864-1.846-8.44h28.672c-3.148,3.671-5.672,7.895-7.436,12.551-3.99,10.539-3.639,22 0.992,32.273 4.629,10.273 12.982,18.128 23.521,22.119 4.859,1.84 9.914,2.757 14.958,2.757 5.896,0 11.779-1.253 17.315-3.748 3.021-1.361 4.367-4.915 3.005-7.936-1.36-3.02-4.911-4.367-7.935-3.005-7.352,3.313-15.551,3.566-23.094,0.709-7.541-2.855-13.518-8.477-16.831-15.828-3.313-7.351-3.564-15.553-0.709-23.093 2.855-7.541 8.477-13.518 15.827-16.831 2.879-1.297 4.26-4.603 3.159-7.562l-19.314-51.932c-2.909-7.82-0.23-16.713 6.514-21.625 1.685-1.227 3.741-1.689 5.787-1.302 2.048,0.387 3.792,1.568 4.913,3.325l47.785,74.939-.033,81.814c-0.004,9.706 3.626,18.849 10.233,25.896h-90.097zm133.386,.002h-1.849-13.792c-6.915,0-13.415-2.693-18.304-7.584s-7.58-11.392-7.577-18.307l.033-80.746h41.489v106.637z"/>
    <circle cx="204.58" cy="191.772" r="7.649"/>
  </g>
</svg>
