<?xml version="1.0" encoding="UTF-8"?>
<!-- Generator: Adobe Illustrator 19.0.0, SVG Export Plug-In . SVG Version: 6.00 Build 0)  -->
<svg enable-background="new 0 0 458.5 458.5" version="1.1" viewBox="0 0 458.5 458.5" xml:space="preserve" xmlns="http://www.w3.org/2000/svg">


	
		
			<path d="m229.25 0c-32.815 0-59.881 25.074-63.051 57.068h-89.777c-26.938 0-48.855 21.917-48.855 48.855 0 26.125 20.614 47.524 46.43 48.793v244.78c0 32.533 26.467 59 59 59h192.51c32.533 0 59-26.467 59-59v-244.78c25.816-1.269 46.43-22.668 46.43-48.793 0-26.939-21.916-48.855-48.855-48.855h-0.00195-89.779c-3.17-31.994-30.234-57.068-63.049-57.068zm-0.00195 30c16.244 0 29.807 11.672 32.76 27.068h-65.52c2.953-15.396 16.516-27.068 32.76-27.068zm-152.84 57.072h305.66c10.396 0 18.855 8.4575 18.855 18.854 0 10.396-8.4585 18.854-18.855 18.854h-305.66c-10.396 0-18.854-8.4575-18.854-18.854 0-10.396 8.4575-18.854 18.854-18.854zm27.576 67.707h250.51v244.72c0 15.991-13.009 29-29 29h-192.51c-15.991 0-29-13.009-29-29v-244.72zm47.84 33.84c-8.284 0-15 6.716-15 15v173.7c0 8.284 6.716 15 15 15s15-6.716 15-15v-173.7c0-8.284-6.716-15-15-15zm77.42 0c-8.284 0-15 6.716-15 15v173.7c0 8.284 6.716 15 15 15s15-6.716 15-15v-173.7c0-8.284-6.715-15-15-15zm77.42 0c-8.284 0-15 6.716-15 15v173.7c0 8.284 6.716 15 15 15s15-6.716 15-15v-173.7c0-8.284-6.716-15-15-15z" fill="#fff"/>
			
			
			
		
	
















</svg>
